<svg width="512" height="512" xmlns="http://www.w3.org/2000/svg" enable-background="new 0 0 512 512">
 <g id="Layer_1">
  <title>Layer 1</title>
  <path id="svg_3" d="m437.4555,253.36377c-16.57255,-2.91666 -33.82125,-4.83704 -47.8272,-5.35684l-2.47001,-0.08663c0.56576,-1.2995 0.99353,-2.18028 1.13151,-2.31023c0.30358,-0.2599 0.55196,-1.35726 0.57956,-2.42574c0,-0.592 0.24838,-2.51237 0.63475,-5.05362c3.79471,0.14439 8.83134,0.2599 14.32332,0.30322c21.209,0.17327 43.39773,1.96369 58.61799,4.77928c9.06592,1.67491 12.06029,1.61716 5.3678,-0.08663c-6.77529,-1.71823 -26.86658,-4.24504 -42.87337,-5.3424c-10.74939,-0.76526 -26.16283,-1.05404 -35.24255,-0.89521c0.26218,-1.64604 0.56576,-3.47978 0.88313,-5.35684c1.2833,-7.26277 1.71107,-14.56886 1.73867,-29.10885c0.0276,-22.55358 -1.13151,-28.76232 -8.15519,-43.67772c-2.85638,-6.09322 -6.08534,-11.26235 -9.99045,-15.94056c3.40834,-10.52597 3.32555,-26.8275 -0.20698,-41.12203c-2.91158,-11.7244 -3.9327,-12.47522 -14.08874,-10.22275c-8.61055,1.92038 -15.51003,4.53382 -24.35517,9.19759c-4.18109,2.20915 -9.94905,5.64562 -14.13014,8.34569c-10.90118,-4.01402 -22.17493,-6.67078 -34.20763,-8.10023c-12.19828,-1.44389 -42.10063,-0.63531 -52.71203,1.41501c-10.37682,2.00701 -19.71872,4.46162 -28.17748,7.37829c-4.22248,-2.72895 -10.34922,-6.41088 -14.72349,-8.7211c-8.88653,-4.67821 -15.78601,-7.27721 -24.42416,-9.19759c-10.12844,-2.26691 -11.17716,-1.50165 -14.07494,10.22275c-3.58773,14.48223 -3.61533,31.05811 -0.06899,41.5552c0.41397,1.19843 0.66235,2.05033 0.75894,2.71452c-14.37852,18.94386 -19.07016,40.14018 -15.9516,69.72552c0.81414,7.71038 2.06984,14.78545 3.82231,21.26852c-9.17631,-0.05776 -22.23013,0.28878 -31.65482,0.92409c-16.03439,1.1118 -36.12568,3.60973 -42.90097,5.32796c-6.6787,1.70379 -3.71192,1.76155 5.3678,0.10107c15.22025,-2.80115 37.42278,-4.62045 58.61799,-4.77928c4.0017,-0.01444 7.74122,-0.10107 10.95638,-0.18771c0.96593,3.42202 2.06984,6.68522 3.32555,9.78958l-0.09659,0.01444c-14.00595,0.50536 -31.24085,2.42574 -47.8134,5.3424c-12.43286,2.18028 -30.78548,6.54083 -32.92432,7.79701c-2.24923,1.31394 -0.41397,1.02516 9.21771,-1.53052c17.56608,-4.64933 40.40336,-8.21574 68.69123,-10.69924l3.15996,-0.28878c6.07154,14.75657 15.42724,26.01892 28.64664,34.79778c8.08619,5.38572 21.04342,10.91582 27.57032,11.78215c1.79386,0.23102 7.00987,1.35726 11.59113,2.48349c4.59505,1.12624 13.57818,2.81559 19.9533,3.783l0.15179,0c-0.12419,0.08663 -0.23458,0.14439 -0.34497,0.23102c-7.72742,4.20172 -12.75024,10.74255 -16.13099,21.0375c-1.51789,0.47648 -3.40834,1.12624 -5.45059,1.86262c-7.29965,2.599 -10.14224,3.13324 -17.53848,3.191c-7.67222,0.05776 -9.49369,-0.28878 -14.07494,-2.54125c-6.6649,-3.24876 -12.87443,-9.22647 -17.01412,-16.35929c-6.91328,-11.92654 -18.86318,-20.35887 -28.82603,-20.35887c-8.51396,0 -10.12844,3.60973 -3.9741,8.87993c9.2729,7.92696 16.19998,16.01276 19.04257,22.19261c1.60068,3.46534 4.05689,8.82218 5.47819,11.89767c1.50409,3.27763 4.71924,7.72482 7.78261,10.80031c7.20306,7.19058 14.15773,10.62704 24.53455,12.2442c6.95468,1.06848 8.66575,1.06848 16.87613,-0.02888c3.9603,-0.50536 7.29965,-1.09736 10.29403,-1.83374c0,3.5231 0,7.58043 0,12.34527c0,25.49912 -0.28978,33.70043 -1.25571,36.09729c-1.82146,4.5627 -5.90596,9.25534 -9.88006,11.36343c-3.9603,2.10808 -5.18841,4.43275 -3.51874,6.56971c0.92453,1.15511 2.7046,1.35726 8.67955,0.95297c11.34275,-0.73638 19.35994,-5.12581 23.44444,-12.86507c1.3109,-2.48349 1.61448,-7.47936 2.02845,-33.4694c0.44157,-28.1992 0.63475,-30.91372 2.38722,-34.94217c1.06252,-2.39686 2.5942,-4.99586 3.44974,-5.70337c1.43509,-1.24175 1.53168,1.21287 1.53168,34.94217c-0.0138,37.22352 -0.37257,41.71402 -3.9327,48.87573c-0.80034,1.6316 -2.31823,3.75412 -3.38075,4.76484c-1.86286,1.77599 -2.6494,6.32424 -1.3523,7.69594c2.13884,2.22359 12.86063,-1.27062 18.71139,-6.09322c9.96285,-8.25906 11.14956,-15.08867 11.23235,-64.412l0.0414,-28.93558l3.02197,0.30322l3.02197,0.28878l0.49676,37.8444c0.56576,42.60924 0.64855,43.23011 7.57563,51.46029c3.9327,4.64933 7.89301,7.21946 14.33712,9.22647c8.62435,2.71452 11.21856,-1.47277 5.42299,-8.73554c-6.30613,-7.89809 -6.6097,-10.91582 -6.26473,-57.66902c0.23458,-29.97519 0.23458,-29.97519 2.08364,-28.22808c3.89131,3.69636 4.63645,9.76071 4.63645,37.87327c0,34.9133 0.95213,38.23425 12.73644,44.32747c5.50579,2.81559 7.05127,3.16212 14.10254,3.191c7.50663,0.02888 7.962,-0.08663 8.23798,-2.13696c0.23458,-1.66048 -0.68995,-2.78671 -4.19488,-5.02474c-4.59505,-2.95998 -7.78261,-6.74297 -9.78346,-11.50781c-0.75894,-1.83374 -1.2695,-13.84692 -1.61448,-38.58078c-0.49676,-34.55232 -0.60715,-36.12616 -2.6632,-41.54076c-2.77359,-7.27721 -7.00987,-13.0239 -12.37767,-16.83577c-1.3937,-0.95297 -2.78739,-1.74711 -4.59505,-2.3391c2.22163,-0.23102 4.37427,-0.47648 6.45791,-0.79414c21.69197,-3.01773 33.1589,-5.5301 42.36281,-9.25534c19.47033,-7.84033 32.63454,-20.86423 39.76861,-39.3316c0.63475,-1.64604 1.2695,-3.20544 1.80766,-4.46162l5.49199,0.47648c28.30167,2.49793 51.13895,6.06434 68.70503,10.72811c9.63167,2.55569 11.46694,2.85891 9.21771,1.51609c-2.09744,-1.22731 -20.45006,-5.57342 -32.86913,-7.7537zm-82.98695,-0.44761c-3.21516,7.39272 -12.18448,16.89353 -19.42894,20.61877c-7.14786,3.69636 -18.35262,6.51195 -31.04766,7.85477c-8.67955,0.92409 -57.0863,1.19843 -65.0759,0.37541c-26.45261,-2.71452 -41.27269,-8.04248 -52.20147,-18.71283c-10.34922,-10.13612 -15.17886,-23.8964 -14.33712,-40.83325c0.53816,-10.59816 2.98058,-17.2545 9.36949,-25.3403c5.80936,-7.36385 11.9223,-11.9121 19.12536,-14.22233c6.03015,-1.93481 24.53455,-2.10808 49.41408,-0.43317c10.99777,0.73638 20.09129,0.73638 31.07526,0c26.02484,-1.71823 43.39773,-1.53052 49.81425,0.54868c10.08704,3.26319 19.27715,12.04205 24.79673,23.73758c2.48381,5.22689 2.96678,7.45048 3.32555,15.52183c0.49676,11.11796 -1.3385,22.929 -4.82964,30.88484zm-131.22812,-47.73505c-14.80629,-2.71452 -23.26505,23.80977 -11.9085,37.35347c5.39539,6.42532 10.18363,7.47936 16.17238,3.58085c5.54718,-3.62417 8.55536,-10.39602 8.55536,-19.17488c0,-11.70996 -5.09182,-20.31555 -12.81924,-21.75944zm89.87264,1.58828c-14.80629,-2.71452 -23.27885,23.78089 -11.9223,37.33903c5.40919,6.42532 10.18363,7.4938 16.18618,3.56641c5.53338,-3.60973 8.55536,-10.39602 8.55536,-19.17488c0,-11.66664 -5.09182,-20.30111 -12.81924,-21.73057zm-39.8238,52.15336c-0.31738,1.06848 -1.86286,2.65676 -3.42214,3.50866c-3.9465,2.12252 -6.78909,1.38614 -10.95638,-2.58457c-2.58041,-2.44018 -3.75332,-3.72524 -4.53986,-1.16955c-0.73134,2.36798 3.86371,7.11838 7.41004,8.57672c3.25655,1.35726 5.58858,1.40057 9.12111,-0.14439c3.50494,-1.53052 6.56831,-5.64562 6.56831,-8.31681c0,-2.48349 -3.40834,-2.36798 -4.18109,0.12995zm-4.37427,-8.30238c2.24923,-2.0792 2.75979,-6.35312 0.60715,-8.62003s-6.52691,-1.92038 -8.23798,0.62087c-1.98705,2.97442 -0.92453,5.24133 0.49676,7.65262c2.20783,1.79043 5.17461,2.1514 7.13406,0.34653z" stroke="null" fill="#ffffff"/>
 </g>
</svg>